<?xml version="1.0" encoding="UTF-8"?>
<svg version="1.1" xmlns="http://www.w3.org/2000/svg" width="1619" height="566">
<path d="M0 0 C6.15785018 6.02679724 10.5534961 12.77338796 14.78125 20.24124146 C15.84847986 22.12604291 16.92838847 24.00307249 18.01171875 25.87866211 C19.16395439 27.8737875 20.31545847 29.86929402 21.46328735 31.86695862 C25.73900705 39.30696474 30.11474525 46.68669816 34.5 54.0625 C34.89531921 54.72852234 35.29063843 55.39454468 35.69793701 56.08074951 C41.73128887 66.24514467 47.84991756 76.35522976 54.00964355 86.44342041 C58.96227501 94.56040739 63.76712176 102.74336794 68.42733288 111.03133011 C72.08598372 117.49515406 75.93029984 123.82649921 79.859375 130.12890625 C80.45347168 131.08510864 81.04756836 132.04131104 81.65966797 133.02648926 C83.1048414 135.3519972 84.55163641 137.67647813 86 140 C86.00358253 139.05523269 86.00358253 139.05523269 86.00723743 138.09137917 C86.06649456 122.73258294 86.14211263 107.37396624 86.23571491 92.01534462 C86.28059079 84.58788094 86.32002413 77.16046434 86.34643555 69.73291016 C86.36948239 63.25550753 86.40295437 56.7782549 86.44870156 50.30097139 C86.4725442 46.87449033 86.49133137 43.44815699 86.49761391 40.021595 C86.50727158 36.18686261 86.53535277 32.35266613 86.56762695 28.51806641 C86.56619186 27.39452759 86.56475677 26.27098877 86.5632782 25.11340332 C86.68617037 14.75226033 88.47808434 5.57439414 96 -2 C104.16395965 -8.09646337 113.29780357 -7.51264052 123 -7 C129.54976988 -5.92357542 134.64598513 -3.02299111 139 2 C145.31286397 11.52847905 145.32312221 21.94271298 145.4140625 33 C145.4328006 34.44589307 145.45237593 35.89177551 145.4727478 37.33764648 C145.52379637 41.11864924 145.56356683 44.89968735 145.60089111 48.68084717 C145.6411031 52.54903714 145.69211645 56.41708356 145.7421875 60.28515625 C145.83862321 67.85667189 145.92313001 75.42825774 146 83 C147.44943227 81.39565329 148.89799678 79.79052258 150.34619141 78.18505859 C151.15295319 77.2912851 151.95971497 76.3975116 152.79092407 75.47665405 C155.07041247 72.9210587 157.24752356 70.30822539 159.375 67.625 C163.05636689 63.07139288 166.92774473 58.76417484 170.91357422 54.48095703 C173.90412641 51.24823796 176.73771685 47.93312334 179.5 44.5 C182.69931722 40.52370574 186.02584945 36.73331702 189.5 33 C193.78263138 28.39744873 197.79168895 23.63827416 201.734375 18.73828125 C204.9350516 14.86987729 208.32590313 11.18944429 211.73828125 7.5078125 C214.0297292 5.03228926 214.0297292 5.03228926 216.0390625 2.3515625 C217.93652832 0.07611544 219.53443719 -1.2497238 222.0625 -2.75 C222.73410156 -3.15734375 223.40570312 -3.5646875 224.09765625 -3.984375 C229.72505301 -6.98873467 236.37746946 -6.89706198 242.4765625 -5.38671875 C249.33149562 -2.71305927 253.92404446 2.13117377 257.375 8.5625 C259.62823534 17.35011783 258.91785832 23.93213554 254.5625 31.875 C251.3256533 36.98414038 247.2435062 41.03452834 242.87890625 45.1640625 C239.99811066 47.92285029 237.41998828 50.90859822 234.81420898 53.92529297 C231.87935397 57.28155698 228.8125628 60.51061951 225.75 63.75 C220.34889148 69.4868045 214.98969752 75.2564645 209.67578125 81.07421875 C207.29874782 83.67333998 204.91403111 86.26489602 202.52294922 88.85107422 C201.51633769 89.94095147 200.51142219 91.03239788 199.50830078 92.12548828 C196.95928542 94.90022819 194.3862758 97.64411764 191.76171875 100.34765625 C190.98731445 101.15783203 190.98731445 101.15783203 190.19726562 101.984375 C189.21256758 103.01365834 188.2181289 104.03373615 187.21289062 105.04296875 C185.71277032 106.56733451 185.71277032 106.56733451 184 109 C184.35156326 112.28790604 185.70117986 114.17494342 187.80859375 116.65234375 C188.6739978 117.68307007 188.6739978 117.68307007 189.55688477 118.73461914 C190.17748779 119.46156982 190.79809082 120.18852051 191.4375 120.9375 C192.72822615 122.47516756 194.01727876 124.01424138 195.3046875 125.5546875 C195.93858398 126.31233398 196.57248047 127.06998047 197.22558594 127.85058594 C199.57970466 130.70221792 201.82605829 133.61748269 204.0625 136.5625 C208.29995059 142.13370554 212.6846506 147.56871809 217.11352539 152.98852539 C220.62347642 157.28956736 224.0842413 161.62385226 227.5 166 C231.44185868 171.04854757 235.45070133 176.0372452 239.5 181 C268.03370007 216.02381754 268.03370007 216.02381754 267.3125 228.84765625 C266.21440151 236.41080963 262.67744352 241.91958923 257 247 C250.83624661 250.99034034 244.37582858 252.90934873 237 252 C227.5920724 249.32861315 221.68186969 244.32959668 215.875 236.625 C214.91481504 235.3770248 213.95385031 234.12964925 212.9921875 232.8828125 C212.50073242 232.2424707 212.00927734 231.60212891 211.50292969 230.94238281 C209.04243736 227.76244828 206.52009218 224.63275641 204 221.5 C199.6805297 216.11629225 195.40078068 210.70330213 191.14453125 205.26953125 C187.7894776 200.99159751 184.4015606 196.74102029 181 192.5 C176.68496245 187.12006887 172.40695687 181.71300792 168.15551758 176.28271484 C164.22145891 171.26464541 160.23860617 166.28645146 156.234375 161.32421875 C153.70781416 158.18176496 151.23791552 155.00653291 148.82348633 151.77685547 C148.02640007 150.71143021 148.02640007 150.71143021 147.21321106 149.6244812 C146.81285141 149.0884024 146.41249176 148.55232361 146 148 C145.99413376 148.98003998 145.98826752 149.96007996 145.98222351 150.96981812 C145.924833 160.23803186 145.85198699 169.50601465 145.76428509 178.77399254 C145.71969352 183.53795023 145.68041308 188.30182462 145.65356445 193.06591797 C145.6274191 197.66967545 145.58693843 202.27311039 145.53681374 206.87666702 C145.52022061 208.62674551 145.50865956 210.3768797 145.50238609 212.1270256 C145.40565699 236.64736681 145.40565699 236.64736681 136.36328125 245.625 C128.56015832 252.66642981 120.73274263 253.31457382 110.5 252.8125 C101.7470023 252.0056309 95.35196371 249.12676262 89 243 C86.9375 240.29296875 86.9375 240.29296875 85 237.1875 C84.63100586 236.59839844 84.26201172 236.00929688 83.88183594 235.40234375 C78.95422105 227.44816314 74.30278253 219.32227454 69.61328125 211.2265625 C66.25193246 205.42443758 62.85350442 199.64508155 59.4375 193.875 C58.90543945 192.97587891 58.37337891 192.07675781 57.82519531 191.15039062 C56.7532918 189.33940022 55.68118954 187.52852743 54.60888672 185.71777344 C51.90299628 181.14691269 49.20174737 176.57331041 46.5 172 C45.4166886 170.16665371 44.33335527 168.33332037 43.25 166.5 C36.75 155.5 36.75 155.5 35.12451172 152.74902344 C34.04298151 150.91884158 32.96127626 149.08876315 31.87939453 147.25878906 C29.14201619 142.62807798 26.40786455 137.9955138 23.6796875 133.359375 C23.12603516 132.41964844 22.57238281 131.47992188 22.00195312 130.51171875 C20.97602656 128.77022996 19.95114232 127.02812632 18.92773438 125.28515625 C15.43865473 119.36626482 11.86993675 113.49800195 8.28369141 107.63769531 C7.77465775 106.80533356 7.26562408 105.9729718 6.74116516 105.11538696 C5.49438165 103.07675833 4.24731966 101.03830062 3 99 C2.99853344 99.67015294 2.99706688 100.34030588 2.99555588 101.03076649 C2.95842365 117.37466663 2.8993244 133.71832706 2.81609726 150.06205463 C2.77637216 157.96593354 2.74394666 165.86971382 2.72900391 173.77368164 C2.71595337 180.66679331 2.68890257 187.55968739 2.64538693 194.45267648 C2.62284803 198.0988841 2.60708473 201.7448241 2.60811615 205.39110756 C2.60900728 209.47238751 2.57862696 213.55288421 2.54589844 217.6340332 C2.55344398 219.42615738 2.55344398 219.42615738 2.56114197 221.25448608 C2.45308976 229.99779857 0.69105619 237.23890059 -3.625 244.875 C-9.60272852 250.22349394 -16.95406432 253.25452872 -25 253 C-31.82156848 252.24076978 -38.21477195 250.36922748 -42.6953125 244.94921875 C-47.62188948 237.86875183 -49.30093559 231.82138169 -49.26069641 223.29742432 C-49.26452196 222.43364033 -49.26834751 221.56985633 -49.27228898 220.67989707 C-49.28258888 217.79206959 -49.2786325 214.90444205 -49.2746582 212.01660156 C-49.27900642 209.94329647 -49.28418993 207.86999299 -49.29014587 205.79669189 C-49.30353731 200.16843797 -49.30411423 194.5402512 -49.30158257 188.91198444 C-49.30051267 184.21037943 -49.30539688 179.50878799 -49.310188 174.80718589 C-49.32128431 163.7116162 -49.32172029 152.61608036 -49.31567383 141.52050781 C-49.30963705 130.08367193 -49.3219373 118.64695916 -49.3432439 107.21014428 C-49.36087499 97.38403803 -49.36685875 87.55797091 -49.36360615 77.73184943 C-49.36179511 71.86634713 -49.36441151 66.00093259 -49.37832069 60.13544464 C-49.39091839 54.61637253 -49.38893643 49.09749181 -49.37590981 43.57842255 C-49.37354848 41.55724523 -49.37626273 39.53605436 -49.38453293 37.51489258 C-49.43609571 23.92949166 -49.48403823 11.02457252 -39.58984375 0.5 C-28.59841793 -9.34831753 -11.22224189 -9.41776597 0 0 Z " fill="#013A20" transform="translate(999,172)"/>
<path d="M0 0 C5.678021 3.39001993 8.77059551 7.89228876 11.66015625 13.7421875 C12.1731855 14.77758163 12.1731855 14.77758163 12.69657898 15.83389282 C17.61672979 26.05035594 21.3851146 36.74988674 25.3125 47.375 C26.17957354 49.70000224 27.04767475 52.02462147 27.91674805 54.34887695 C29.26064638 57.94367224 30.60381181 61.53872535 31.94367981 65.13502502 C36.27784795 76.76821714 40.67679537 88.37638285 45.09188843 99.97906494 C46.2772118 103.09474329 47.46071346 106.21110798 48.64379883 109.32763672 C53.0422496 120.90623376 57.49011001 132.46434631 62 144 C63.96502071 141.05246894 65.0566426 138.47331611 66.29638672 135.16650391 C66.75292633 133.95452332 67.20946594 132.74254272 67.67984009 131.49383545 C68.179862 130.15477164 68.6798088 128.81567978 69.1796875 127.4765625 C69.70509767 126.07744928 70.23085188 124.6784652 70.75692749 123.27960205 C71.8808235 120.28906725 73.00238353 117.29767062 74.12219238 114.30560303 C75.87847151 109.61356763 77.64137909 104.92404016 79.40527344 100.23486328 C84.22733679 87.41149415 89.04046952 74.58482102 93.82429695 61.74713326 C95.87289305 56.24965325 97.92814737 50.75467928 99.9854126 45.26043701 C101.22289975 41.94755031 102.45114475 38.63133381 103.67919922 35.31494141 C115.02709448 4.88490811 115.02709448 4.88490811 127.71875 -2.01953125 C135.61540718 -5.41347124 145.96736228 -5.22755002 153.91015625 -2.08203125 C161.94534625 2.07824469 166.35758861 8.44322324 169.41273689 16.90305996 C172.38508354 27.51641642 172.68190469 38.97811816 173.51220703 49.92553711 C173.65003195 51.69472313 173.78826807 53.46387716 173.92687988 55.23300171 C174.29929199 60.00385761 174.66537381 64.77517846 175.02979517 69.54665065 C175.33617575 73.55172548 175.64545633 77.55657447 175.95463836 81.56143385 C176.68522378 91.02668382 177.41039363 100.49233826 178.13232422 109.95825195 C178.87288872 119.66705052 179.62328194 129.37505428 180.37846863 139.08272547 C181.0300152 147.4632668 181.67496043 155.8442995 182.3148793 164.22573668 C182.69558326 169.21093937 183.07870841 174.1959234 183.4683876 179.18043327 C186.25291562 214.86173773 186.25291562 214.86173773 186.31591797 228.23266602 C186.32194094 229.07262336 186.32796391 229.9125807 186.33416939 230.77799129 C186.24343619 238.31860197 184.36050041 243.38688795 179.28515625 248.84375 C173.94355129 253.79963731 168.31430694 255.86363157 161 256 C153.21818778 255.48953127 147.57691257 253.53736 142 248 C136.52977387 241.09024068 135.62603857 234.17092539 134.98291016 225.65991211 C134.90106791 224.64976768 134.81922565 223.63962324 134.73490334 222.59886837 C134.47967302 219.39994056 134.23742055 216.20029622 134 213 C133.88872395 211.50309065 133.88872395 211.50309065 133.77519989 209.9759407 C133.24833616 202.79952314 132.75858775 195.62074414 132.2734375 188.44140625 C132.11954002 186.18740084 131.96545297 183.93340837 131.81118774 181.6794281 C131.41149474 175.83220873 131.01432452 169.98482083 130.61773682 164.13739014 C130.21026717 158.13640835 129.80033267 152.13559496 129.390625 146.13476562 C128.59138036 134.42333772 127.79480916 122.71172971 127 111 C115.31417417 140.49204966 115.31417417 140.49204966 103.73828125 170.02734375 C102.81839604 172.38477993 101.89847493 174.7422021 100.97851562 177.09960938 C99.62227891 180.57566572 98.26791596 184.05240676 96.91821289 187.53100586 C95.55096308 191.05268102 94.17650842 194.5714731 92.80078125 198.08984375 C92.20539299 199.63199806 92.20539299 199.63199806 91.59797668 201.20530701 C82.12777026 225.33901093 82.12777026 225.33901093 70.0625 231.5 C61.64385282 232.87447301 54.48960666 232.38477818 47 228 C41.55041301 223.94917764 38.99734768 218.19087563 36.3515625 212.13671875 C35.83468872 210.96249107 35.83468872 210.96249107 35.30737305 209.76454163 C30.8931411 199.61293676 26.96131589 189.27181453 23 178.9375 C22.17720538 176.80130986 21.35387354 174.66532658 20.5300293 172.52954102 C19.26966487 169.26203672 18.00957438 165.9944309 16.75114441 162.72618103 C12.47265017 151.61650804 8.14606603 140.52578196 3.8125 129.4375 C3.11649275 127.65553465 2.42052786 125.87355275 1.72460938 124.09155273 C0.15044485 120.06075936 -1.42470427 116.03035139 -3 112 C-4.28847831 126.09619356 -5.40139151 140.19004614 -6.26150513 154.31879425 C-6.4437959 157.30630674 -6.6304199 160.2935231 -6.81811523 163.28070068 C-7.34999427 171.75332951 -7.87635082 180.22628896 -8.39550781 188.69970703 C-8.71645509 193.9331655 -9.04378182 199.16619364 -9.37503052 204.3990097 C-9.49863267 206.37143782 -9.61984281 208.34401749 -9.73849487 210.31674957 C-11.58968681 241.06912774 -11.58968681 241.06912774 -19.68359375 249.8203125 C-25.71943043 255.01539854 -32.95466308 256.35430737 -40.78125 255.8046875 C-48.99592404 254.44382282 -54.10339333 250.74937677 -59 244 C-65.72910368 232.4643937 -62.79763366 216.45906477 -61.78417969 203.70068359 C-61.64056243 201.79699495 -61.49782109 199.89324006 -61.35588074 197.98942566 C-60.97061055 192.85867984 -60.57244292 187.72901317 -60.17125225 182.59949064 C-59.75136642 177.20975738 -59.3416302 171.81925038 -58.93023682 166.42886353 C-58.23809312 157.38200438 -57.53729087 148.33584639 -56.83154297 139.29003906 C-56.01762354 128.85607466 -55.21860109 118.42104811 -54.42728305 107.98534715 C-53.74529316 98.99667193 -53.05520438 90.00864481 -52.35843015 81.0211035 C-51.94325332 75.66573377 -51.53080956 70.31019309 -51.12569427 64.95405197 C-50.74437008 59.91843039 -50.35283176 54.88370183 -49.95363808 49.84946632 C-49.80941212 48.01000672 -49.66863596 46.1702726 -49.53170586 44.33025551 C-47.13116565 12.17304485 -47.13116565 12.17304485 -36.25 2.0625 C-24.79996319 -5.20386951 -12.13733623 -6.91473028 0 0 Z " fill="#013A20" transform="translate(616,169)"/>
<path d="M0 0 C9.84788755 8.81816547 14.29029924 21.13080813 18.703125 33.2734375 C19.13423584 34.44171585 19.56534668 35.6099942 20.00952148 36.81367493 C20.94111929 39.34088635 21.87022428 41.86884584 22.79504395 44.39852905 C24.28310346 48.46855654 25.78093053 52.53494798 27.28027344 56.60083008 C28.87333831 60.92218704 30.46577307 65.24377076 32.05499268 69.56654358 C37.53515306 84.47221429 43.06437357 99.35953688 48.59866333 114.24517822 C50.24637036 118.67724526 51.89270356 123.10982186 53.53881836 127.54248047 C58.58176977 141.12111793 63.62999464 154.6977631 68.69140625 168.26953125 C69.13267853 169.45294601 69.57395081 170.63636078 70.02859497 171.8556366 C72.0602509 177.30363532 74.09302842 182.75121067 76.12792969 188.19799805 C82.06768808 204.10659041 82.06768808 204.10659041 84.94921875 212.0625 C85.32780029 213.10535156 85.70638184 214.14820313 86.09643555 215.22265625 C88.86956799 223.7466105 89.00742494 231.88602653 85 240 C80.53146774 246.52382616 74.94235872 251.45765448 67 253 C58.01760665 253.66726351 51.40332063 252.90619161 43.875 247.9375 C36.08823243 240.78659966 32.84428116 229.99949528 29.42041016 220.3112793 C28.61645112 218.03833064 27.79583304 215.77191059 26.97265625 213.50585938 C26.45215699 212.05763921 25.93259057 210.60908336 25.4140625 209.16015625 C25.17039948 208.48517593 24.92673645 207.81019562 24.6756897 207.11476135 C23.67379961 204.26542942 23 202.04589504 23 199 C-5.38 199.33 -33.76 199.66 -63 200 C-66.96 211.22 -70.92 222.44 -75 234 C-79.69281193 242.44706147 -83.35697107 247.99038457 -91.8125 252.5 C-100.95188329 253.93362875 -109.37094622 253.91136458 -117.125 248.5234375 C-122.90934335 243.86619047 -126.26473691 239.46537828 -127.48046875 232.08203125 C-127.94220917 224.65062418 -126.50058039 218.77717435 -123.94921875 211.8828125 C-123.63721527 211.01655243 -123.32521179 210.15029236 -123.00375366 209.25778198 C-122.34268557 207.42499695 -121.67762978 205.59364589 -121.00881958 203.76367188 C-120.03076151 201.08427147 -119.06561133 198.40062294 -118.10522461 195.71484375 C-116.12461123 190.18024682 -114.12637375 184.65211859 -112.125 179.125 C-111.76139374 178.11999451 -111.39778748 177.11498901 -111.02316284 176.07952881 C-104.55730168 158.21437767 -97.99416175 140.38619143 -91.39338684 122.57052612 C-91.04185043 121.62170563 -90.69031403 120.67288513 -90.328125 119.6953125 C-89.97582321 118.74447784 -89.62352142 117.79364319 -89.26054382 116.81399536 C-85.47470876 106.59093486 -81.71595322 96.35796356 -77.95956421 86.12405396 C-76.8226374 83.02760942 -75.68455631 79.9315915 -74.54614258 76.83569336 C-71.33187437 68.09214277 -68.1214634 59.34740085 -64.94560242 50.58981323 C-63.68010166 47.10193366 -62.40948832 43.61592797 -61.13827515 40.13012695 C-60.55786252 38.53407697 -59.97997269 36.93710669 -59.40493774 35.33911133 C-48.25680239 4.36303331 -48.25680239 4.36303331 -36.25 -2.4375 C-24.84669321 -7.27054214 -10.32043575 -7.57839529 0 0 Z M-21 76 C-23.7823551 83.71152669 -26.56446287 91.42314254 -29.34627056 99.13486671 C-30.63852588 102.71723215 -31.93086061 106.2995689 -33.22338867 109.88183594 C-34.47499291 113.35069155 -35.72637309 116.81962792 -36.97760963 120.28861618 C-37.45067475 121.60004828 -37.92381532 122.91145317 -38.39703941 124.22282791 C-39.06918487 126.08548741 -39.74101573 127.94826043 -40.4128418 129.81103516 C-40.79256638 130.86360504 -41.17229095 131.91617493 -41.56352234 133.00064087 C-43.71742482 138.99741325 -45.85691223 144.99935423 -48 151 C-29.85 151 -11.7 151 7 151 C4.70658499 142.42302734 4.70658499 142.42302734 1.97875977 134.06054688 C1.61150284 133.03578247 1.24424591 132.01101807 0.86585999 130.9552002 C0.47829025 129.88717163 0.09072052 128.81914307 -0.30859375 127.71875 C-0.71658707 126.58401245 -1.12458038 125.4492749 -1.54493713 124.28015137 C-2.83850844 120.68533014 -4.13791259 117.09265009 -5.4375 113.5 C-6.30572236 111.08998199 -7.1735642 108.67982685 -8.04101562 106.26953125 C-11.67688485 96.17344844 -15.32893257 86.08333777 -19 76 C-19.66 76 -20.32 76 -21 76 Z " fill="#013A20" transform="translate(1412,171)"/>
<path d="M0 0 C4.19123941 1.82890447 6.14790848 3.69803736 7.9375 7.8125 C9.19240808 11.83119375 9.16019185 14.90065546 8 19 C6.17660948 21.70567626 4.92542564 23.53728718 2 25 C1.88117598 55.1737569 1.97951996 85.33091362 2.5 115.5 C2.51195782 116.19344765 2.52391563 116.88689529 2.53623581 117.60135651 C2.68294343 126.06771855 2.83742213 134.53392756 3 143 C3.79041427 141.10555738 4.58056429 139.2110045 5.37060547 137.31640625 C5.81064911 136.26138916 6.25069275 135.20637207 6.70407104 134.11938477 C7.83556144 131.39581423 8.95625315 128.66823321 10.0703125 125.9375 C26.44477701 86.31010789 52.50076769 49.50238209 92.9765625 31.82421875 C106.98927303 26.11633859 124.4249993 21.18733738 139.10546875 27.09765625 C144.66597674 29.74606315 147.82820698 32.23397048 150.3046875 37.86328125 C152.27893303 43.9302043 151.22880693 48.90110263 148.51171875 54.46875 C144.82569074 60.64070388 140.12871524 66.16431023 135.59326172 71.72460938 C117.5496049 93.78315527 117.5496049 93.78315527 109 120 C109.94915283 119.9685791 109.94915283 119.9685791 110.91748047 119.93652344 C135.00109157 119.24829581 156.07743674 121.74456361 175 138 C177.2915075 140.18567482 179.21199201 142.3890347 181 145 C181.40992188 145.57878906 181.81984375 146.15757812 182.2421875 146.75390625 C185.88520305 152.77116296 185.82408165 159.15840547 185 166 C182.30359524 176.06096026 172.83406199 182.24144357 164.80078125 187.94140625 C146.21508868 201.60201989 137.77124882 219.03641692 130.6875 240.4296875 C130.29945694 241.59865067 129.91141388 242.76761383 129.51161194 243.97200012 C125.33559259 256.74748491 121.86065371 269.69414085 118.4375 282.6875 C106.28565271 328.75613053 106.28565271 328.75613053 97.5 346.3125 C97.03352051 347.26342529 96.56704102 348.21435059 96.08642578 349.1940918 C92.66070134 356.02731248 88.99961235 362.1837179 84 368 C83.27039063 368.8765625 82.54078125 369.753125 81.7890625 370.65625 C75.64309545 377.7880889 68.87878353 385.12047855 59.09765625 386.37109375 C49.89266817 386.57248989 49.89266817 386.57248989 46.3125 383.6875 C43.01858059 379.8594315 42.58299974 376.65811599 42.6640625 371.6484375 C44.10338555 360.30121627 51.85469183 350.63774873 58.421875 341.6953125 C76.80994434 316.58182745 85.73065352 288.78418457 93.41015625 258.9140625 C93.86024551 257.1637674 93.86024551 257.1637674 94.31942749 255.37811279 C95.82397603 249.50804493 97.31102494 243.63412459 98.77539062 237.75390625 C103.89770167 217.37474499 109.76512507 197.44772531 120 179 C120.91458984 177.33517578 120.91458984 177.33517578 121.84765625 175.63671875 C123.50384371 172.71382088 125.21809707 169.84767466 127 167 C127.51433594 166.16984375 128.02867187 165.3396875 128.55859375 164.484375 C129.93283685 162.44264239 131.19262765 160.66907737 133 159 C136.25 158.375 136.25 158.375 139 159 C141 161 141 161 141.30859375 163.35546875 C140.93712071 166.53885167 140.02846156 167.80266699 138.0625 170.3125 C121.32258966 193.26237708 114.19328551 220.55534239 107.24609375 247.69921875 C97.66405294 285.12838539 88.38215157 319.54006204 65 351 C56.21034519 362.36235001 56.21034519 362.36235001 54 376 C62.5326311 375.6444737 67.42792975 370.87129465 73.0625 364.8125 C89.24394508 345.84986905 96.80098839 321.42451932 103.19937134 297.78863525 C103.95936635 294.98174087 104.72971049 292.1778577 105.50268555 289.37451172 C106.53382574 285.63315669 107.56192621 281.89099435 108.58691406 278.14794922 C126.83400464 211.58520242 126.83400464 211.58520242 143 193 C143.6496875 192.25105469 144.299375 191.50210938 144.96875 190.73046875 C150.36602253 184.96991826 156.61348588 180.32901112 162.97265625 175.69165039 C167.76055231 172.15488759 172.50816019 168.61616469 174.84765625 162.9453125 C175.50621338 157.36553752 174.32915742 153.5269495 171 149 C160.07740148 136.7869679 143.05407208 131.07027147 127 130 C126.24460937 129.9484375 125.48921875 129.896875 124.7109375 129.84375 C100.60708247 128.96989423 75.2716969 138.23845843 57.5625 154.5625 C55.68896363 156.35633091 53.84521551 158.1767187 52 160 C51.30777344 160.62003906 50.61554688 161.24007812 49.90234375 161.87890625 C32.01618324 178.2959776 20.84632829 203.31178902 11 225 C10.64292969 225.77811035 10.28585937 226.5562207 9.91796875 227.35791016 C9.00325789 229.37455607 8.11914393 231.40087295 7.25 233.4375 C6.78078125 234.52933594 6.3115625 235.62117187 5.828125 236.74609375 C3.81297849 244.66409867 7.10877519 253.35215709 8.83901978 261.16262817 C15.75306782 292.55637246 19.04708818 323.88749464 20 356 C20.06380859 357.83304687 20.06380859 357.83304687 20.12890625 359.703125 C20.43399048 376.21835111 19.66561865 394.07556451 15 410 C14.60361328 411.39025391 14.60361328 411.39025391 14.19921875 412.80859375 C12.07525184 419.10564101 8.85662551 423.66704766 3 427 C-1.06997926 428.10514418 -4.22414153 427.31034339 -8.125 425.75 C-22.13824921 412.34602249 -21.6649765 387.63863544 -22.19140625 369.59765625 C-22.87439343 329.2500048 -17.33810053 289.40989523 -8.67675781 250.1015625 C-8.45342773 249.07804688 -8.23009766 248.05453125 -8 247 C-7.65485352 245.71113892 -7.65485352 245.71113892 -7.30273438 244.39624023 C-6.9253778 241.40934119 -7.53684845 239.79882841 -8.703125 237.03515625 C-9.10080078 236.08125 -9.49847656 235.12734375 -9.90820312 234.14453125 C-10.35099609 233.12746094 -10.79378906 232.11039063 -11.25 231.0625 C-11.70310547 230.00289062 -12.15621094 228.94328125 -12.62304688 227.8515625 C-22.09398014 205.9995601 -32.92985197 185.49973321 -48 167 C-48.63164062 166.20207031 -49.26328125 165.40414062 -49.9140625 164.58203125 C-64.57769961 146.95446749 -87.37100424 134.47098142 -110 131 C-110.70898438 130.89042969 -111.41796875 130.78085938 -112.1484375 130.66796875 C-131.40196829 128.13460944 -152.43059495 131.73226003 -168.1328125 143.5625 C-173.03523664 147.73022843 -175.92122042 152.06332226 -178.125 158.0625 C-177.8841323 163.72289098 -175.74101179 167.35954169 -171.6328125 171.23046875 C-168.80410934 173.55833919 -165.92360925 175.79269448 -163 178 C-140.81223165 195.10097983 -130.60317016 214.17218507 -122.22265625 240.41015625 C-121.87855713 241.48707733 -121.53445801 242.56399841 -121.17993164 243.67355347 C-116.86384755 257.37152317 -113.23559688 271.25594979 -109.57275391 285.13964844 C-97.51200937 335.08434935 -97.51200937 335.08434935 -66 374 C-62.8887875 375.7364907 -61.7072057 376.09429409 -58.1875 375.625 C-57.1046875 375.315625 -57.1046875 375.315625 -56 375 C-57.64075509 364.82731843 -62.56191208 357.9227987 -68.56054688 349.7421875 C-90.84081013 319.34830237 -99.99813347 286.64597053 -109.28094482 250.59484863 C-119.89826523 207.91179622 -119.89826523 207.91179622 -141.04052734 169.70288086 C-143.01235274 167.00374282 -144.03306723 165.5598359 -143.83203125 162.15625 C-143 160 -143 160 -142 159 C-139.19921875 158.64453125 -139.19921875 158.64453125 -136 159 C-113.60062626 178.49350904 -106.87353068 217.35882288 -99.88034058 244.68557739 C-90.24351446 284.5602996 -90.24351446 284.5602996 -74 322 C-73.64679688 322.63631348 -73.29359375 323.27262695 -72.9296875 323.92822266 C-68.67920038 331.50226962 -64.00879019 338.48481839 -58.60791016 345.28222656 C-52.10778222 353.54488427 -45.68884683 362.77031154 -45.75 373.625 C-45.74226563 375.00558594 -45.74226563 375.00558594 -45.734375 376.4140625 C-46.02076711 379.20217396 -46.39448826 380.70779348 -48 383 C-53.31059786 387.04485951 -58.59436493 386.72011061 -65 386 C-78.37788634 382.44834876 -88.53390243 367.55223048 -95.3125 356.23046875 C-109.46767906 331.41151765 -116.01807736 302.7331807 -123.31640625 275.3359375 C-132.94175761 234.9671514 -132.94175761 234.9671514 -154 200 C-154.928125 198.95199219 -154.928125 198.95199219 -155.875 197.8828125 C-161.1142918 192.30614206 -167.01120408 187.82627561 -173.23999023 183.42456055 C-179.98221532 178.57277169 -185.55958128 173.13472908 -188 165 C-189.26930867 155.84687417 -186.78213766 149.5553654 -181.68359375 142.06640625 C-170.91083328 128.2858665 -152.64429535 122.41485701 -136 120 C-134.05592048 119.92348087 -132.10961922 119.89188377 -130.1640625 119.90234375 C-129.10058594 119.90556641 -128.03710938 119.90878906 -126.94140625 119.91210938 C-125.29978516 119.92467773 -125.29978516 119.92467773 -123.625 119.9375 C-122.50738281 119.94201172 -121.38976562 119.94652344 -120.23828125 119.95117188 C-117.49213196 119.96290756 -114.74609414 119.97932637 -112 120 C-117.70893808 101.96422075 -125.98657907 86.62050013 -138 72 C-153.8192864 52.61684141 -153.8192864 52.61684141 -153.38671875 40.7734375 C-152.69128058 35.78595163 -150.25109319 33.25109319 -146.8125 29.8125 C-136.53826729 23.19132781 -124.51973638 23.91567295 -112.875 26.1875 C-89.22766757 31.94027033 -70.38957894 45.4811439 -53 62 C-52.31550781 62.6084375 -51.63101563 63.216875 -50.92578125 63.84375 C-29.50924769 83.59904301 -17.06238677 113.30125261 -7 140 C-6.92251251 120.61888791 -7.14508181 101.25258051 -7.5 81.875 C-7.84025737 63.2476219 -8.08190059 44.63080846 -8 26 C-8.94101562 25.7215625 -9.88203125 25.443125 -10.8515625 25.15625 C-15.10691134 23.59349162 -16.09876082 22.09497669 -18 18 C-18.65850884 13.37564019 -18.57044221 9.41109388 -16.8125 5.0625 C-12.01812952 -0.39316295 -6.96662744 -0.97130863 0 0 Z M-142.9375 39.8125 C-144.4332864 42.89206024 -143.77086213 44.70152152 -143 48 C-139.78671947 54.6553383 -135.05339629 60.20042546 -130.1875 65.6875 C-116.31788525 81.46986661 -107.25109899 100.52224508 -101.16796875 120.54296875 C-100.78253906 121.35378906 -100.39710938 122.16460937 -100 123 C-97.97233472 123.68758278 -97.97233472 123.68758278 -96 124 C-100.44982172 92.23632551 -100.44982172 92.23632551 -114.9375 64.0625 C-117 61 -117 61 -116.8125 58.0625 C-116.544375 57.381875 -116.27625 56.70125 -116 56 C-113.375 55.5 -113.375 55.5 -110 56 C-95.66221135 68.7937191 -92.00658492 94.23416485 -88.859375 112.1328125 C-88.63628662 113.32837769 -88.63628662 113.32837769 -88.40869141 114.5480957 C-88 117 -88 117 -87.75927734 119.66088867 C-87.19867179 124.6786276 -87.19867179 124.6786276 -84.25390625 128.57910156 C-81.93079912 129.92870629 -79.59709054 131.01114028 -77.125 132.0625 C-75.38677322 132.88645406 -73.65237367 133.71853007 -71.921875 134.55859375 C-71.07689453 134.9644873 -70.23191406 135.37038086 -69.36132812 135.78857422 C-64.07065788 138.50283247 -59.55424887 142.20132666 -55 146 C-54.20464844 146.64453125 -53.40929687 147.2890625 -52.58984375 147.953125 C-46.59304027 153.01389226 -41.79761836 158.8149171 -37 165 C-35.92105469 166.33804688 -35.92105469 166.33804688 -34.8203125 167.703125 C-25.22007536 179.9340321 -18.02840618 193.7130826 -11.0625 207.5625 C-10.61406738 208.45372559 -10.16563477 209.34495117 -9.70361328 210.26318359 C-6.83339204 216.06755323 -4.31504343 221.95331739 -2 228 C-0.05714312 225.53188117 1.48094095 223.23695425 2.69140625 220.33984375 C2.99079102 219.63859375 3.29017578 218.93734375 3.59863281 218.21484375 C3.91670898 217.46332031 4.23478516 216.71179688 4.5625 215.9375 C21.17609591 177.83946867 43.82910406 146.04944657 82 128 C82.66 127.67 83.32 127.34 84 127 C84.67468245 124.38865288 84.67468245 124.38865288 85.11328125 121.19140625 C85.30656006 119.97775391 85.49983887 118.76410156 85.69897461 117.51367188 C85.90143799 116.20978516 86.10390137 114.90589844 86.3125 113.5625 C88.97240673 97.21918643 92.11858619 81.72478776 100 67 C100.56976563 65.93007812 101.13953125 64.86015625 101.7265625 63.7578125 C105.06420119 57.97943361 105.06420119 57.97943361 107 56 C110.15625 55.64453125 110.15625 55.64453125 113 56 C114 57 114 57 114.2578125 59.2890625 C113.94188945 62.61104121 112.96057145 63.80189237 110.875 66.375 C99.33572525 82.19497344 95.78702911 103.90279343 94 123 C94.99 123 95.98 123 97 123 C97.29132813 122.26064209 97.58265625 121.52128418 97.8828125 120.75952148 C106.14840622 99.87622603 114.43809925 81.20081282 129.29833984 63.99487305 C137.38731056 54.88757986 137.38731056 54.88757986 141.5625 43.6875 C140.72569073 39.68941125 138.67872034 38.11780176 135.375 35.91796875 C122.5719871 30.9694358 107.24076369 36.49367074 95.3828125 41.5390625 C54.2007439 60.89188316 29.7803332 100.13650723 14.30810547 141.35742188 C7.39895394 160.35816343 7.39895394 160.35816343 3 180 C0.69 180 -1.62 180 -4 180 C-6.00178072 174.75567746 -7.85715808 169.49817785 -9.56640625 164.15234375 C-21.16400006 128.31769105 -34.52084934 95.42754431 -61 68 C-61.88558594 67.01966797 -61.88558594 67.01966797 -62.7890625 66.01953125 C-76.79353935 50.90187804 -100.98456966 35.61405718 -121.99609375 34.796875 C-123.4764947 34.77578291 -124.95698456 34.76029029 -126.4375 34.75 C-127.17548828 34.729375 -127.91347656 34.70875 -128.67382812 34.6875 C-134.41294013 34.64668854 -138.61484168 35.76872286 -142.9375 39.8125 Z M-2 265 C-4.96900372 279.6745758 -7.45801837 294.32687689 -9.25 309.1875 C-9.33254028 309.86062225 -9.41508057 310.53374451 -9.50012207 311.2272644 C-11.44973227 327.26307762 -12.18675224 343.1365961 -12.18530273 359.27246094 C-12.1874975 361.99690201 -12.20576491 364.72094199 -12.22460938 367.4453125 C-12.27883466 384.06183716 -12.26864626 402.55569941 -3 417 C-0.4311659 416.64567805 0.74006516 416.28619768 2.5078125 414.33984375 C11.45323428 400.31286039 10.3881476 378.74845538 10.3125 362.6875 C10.31034485 361.85262054 10.3081897 361.01774109 10.30596924 360.15756226 C10.17473554 328.01099435 6.40801602 296.49050111 0 265 C-0.66 265 -1.32 265 -2 265 Z " fill="#013A20" transform="translate(288,70)"/>
<path d="M0 0 C8.42696901 8.83756379 8.98296108 18.76824455 8.95825195 30.44873047 C8.96336288 31.70179993 8.96847382 32.95486938 8.97373962 34.24591064 C8.98521423 37.66343517 8.98771623 41.08071623 8.98517632 44.49824286 C8.98410171 47.36080875 8.98900251 50.22335263 8.99378175 53.08591378 C9.00485263 59.84456496 9.00532811 66.60316056 8.99926758 73.36181641 C8.99323038 80.31236696 9.00553781 87.26271496 9.02683765 94.21323097 C9.04450539 100.2007732 9.05044685 106.18825125 9.0471999 112.17581856 C9.045395 115.74306067 9.04794326 119.31015828 9.06191444 122.87737656 C9.07692919 126.85957407 9.06747754 130.84151746 9.0559082 134.82373047 C9.06737381 136.5743428 9.06737381 136.5743428 9.07907104 138.36032104 C9.0105494 149.06720881 7.15818968 157.79272268 -0.31640625 165.765625 C-6.00151663 170.9092963 -13.51413645 171.9753311 -21 171.6484375 C-28.14414202 170.55619738 -34.45090336 167.48378973 -38.91796875 161.6875 C-44.23184297 152.79996768 -44.61334883 143.50513538 -44.59106445 133.36791992 C-44.59617538 132.1569313 -44.60128632 130.94594269 -44.60655212 129.69825745 C-44.61801211 126.40052166 -44.62053098 123.10294301 -44.61798882 119.80519271 C-44.61691259 117.03969268 -44.62181917 114.27421534 -44.62659425 111.50872022 C-44.63765836 104.97674318 -44.63814472 98.44482366 -44.63208008 91.9128418 C-44.62604612 85.20372308 -44.63834361 78.49481439 -44.65965015 71.78573149 C-44.67734162 65.99940963 -44.68325558 60.21315415 -44.6800124 54.42680627 C-44.67821095 50.98247419 -44.6807203 47.53829187 -44.69472694 44.0939846 C-44.70713995 40.2463324 -44.70026974 36.3991589 -44.6887207 32.55151367 C-44.69636444 31.43060333 -44.70400818 30.30969299 -44.71188354 29.15481567 C-44.64771475 19.42405337 -43.65053325 9.1748438 -37.18359375 1.453125 C-26.9583247 -7.78812234 -10.69547379 -9.16119585 0 0 Z " fill="#013A20" transform="translate(889.31640625,253.234375)"/>
<path d="M0 0 C6.57030736 4.88658698 9.79165276 11.16661104 11.75 19 C12.61795231 29.41542772 12.03245355 38.20559385 5.76953125 46.921875 C1.19209681 52.29758167 -3.96707351 55.82784558 -11 57 C-20.57117506 57.73727539 -28.56294258 57.01830662 -36.25 50.9375 C-43.29512529 44.30017638 -45.89434131 36.13372441 -46.1875 26.6875 C-46.03327971 17.49597046 -43.72302821 10.0916548 -37.3984375 3.2734375 C-27.274948 -6.11043633 -11.82276119 -7.1486463 0 0 Z " fill="#013A20" transform="translate(889,180)"/>
</svg>
